<svg xmlns="http://www.w3.org/2000/svg" version="1.1" xmlns:xlink="http://www.w3.org/1999/xlink" xmlns:svgjs="http://svgjs.com/svgjs" width="512" height="512" x="0" y="0" viewBox="0 0 682.667 682.667" style="enable-background:new 0 0 512 512" xml:space="preserve" class=""><g><defs><clipPath id="a" clipPathUnits="userSpaceOnUse"><path d="M0 512h512V0H0Z" fill="#ffffff" data-original="#000000" class="" opacity="1"></path></clipPath></defs><g clip-path="url(#a)" transform="matrix(1.33333 0 0 -1.33333 0 682.667)"><path d="M0 0c52.489 0 60.01 36.231 60.01 36.231V-16.3c0-8.28 3.36-15.78 8.79-21.21 5.43-5.43 12.93-8.79 21.21-8.79 16.56 0 30 13.43 30 30V90.241c0 7.09-2.88 13.52-7.53 18.17a25.671 25.671 0 0 1-18.18 7.53H29.53c-11.9 0-23.54-3.48-33.47-10.02l-43.24-38.45h-102.53v-187.89h74.5c25.98 0 51.6-16.02 74.86-27.58l2.31-1.15a93.433 93.433 0 0 1 41.58-9.76h76.47" style="stroke-width:30;stroke-linecap:round;stroke-linejoin:round;stroke-miterlimit:10;stroke-dasharray:none;stroke-opacity:1" transform="translate(215.85 173.91)" fill="none" stroke="#ffffff" stroke-width="30" stroke-linecap="round" stroke-linejoin="round" stroke-miterlimit="10" stroke-dasharray="none" stroke-opacity="" data-original="#000000" opacity="1"></path><path d="M0 0v57.02C-29.34 69-50.08 97.99-50 131.36c.09 35.35 23.13 65.32 55 75.79v-75.94c0-7.5 6.09-13.59 13.59-13.59h22.82c7.5 0 13.59 6.09 13.59 13.59v75.94c31.94-10.49 55-40.56 55-76.01 0-33.57-20.68-62.32-50-74.18V-.64" style="stroke-width:30;stroke-linecap:round;stroke-linejoin:round;stroke-miterlimit:10;stroke-dasharray:none;stroke-opacity:1" transform="translate(255.86 289.85)" fill="none" stroke="#ffffff" stroke-width="30" stroke-linecap="round" stroke-linejoin="round" stroke-miterlimit="10" stroke-dasharray="none" stroke-opacity="" data-original="#000000" opacity="1"></path><path d="M0 0h-84.272v60H0c14.211 0 25.731-11.521 25.731-25.732v-8.536C25.731 11.521 14.211 0 0 0Z" style="stroke-width:30;stroke-linecap:round;stroke-linejoin:round;stroke-miterlimit:10;stroke-dasharray:none;stroke-opacity:1" transform="translate(420.128 195)" fill="none" stroke="#ffffff" stroke-width="30" stroke-linecap="round" stroke-linejoin="round" stroke-miterlimit="10" stroke-dasharray="none" stroke-opacity="" data-original="#000000" opacity="1"></path><path d="M0 0h74.27C88.48 0 100 11.52 100 25.73v8.54C100 48.48 88.48 60 74.27 60H0" style="stroke-width:30;stroke-linecap:round;stroke-linejoin:round;stroke-miterlimit:10;stroke-dasharray:none;stroke-opacity:1" transform="translate(335.86 135)" fill="none" stroke="#ffffff" stroke-width="30" stroke-linecap="round" stroke-linejoin="round" stroke-miterlimit="10" stroke-dasharray="none" stroke-opacity="" data-original="#000000" opacity="1"></path><path d="M0 0h-64.272c-16.569 0-30 13.432-30 30 0 16.568 13.431 30 30 30H0c14.211 0 25.731-11.521 25.731-25.732v-8.536C25.731 11.521 14.211 0 0 0Z" style="stroke-width:30;stroke-linecap:round;stroke-linejoin:round;stroke-miterlimit:10;stroke-dasharray:none;stroke-opacity:1" transform="translate(400.128 75)" fill="none" stroke="#ffffff" stroke-width="30" stroke-linecap="round" stroke-linejoin="round" stroke-miterlimit="10" stroke-dasharray="none" stroke-opacity="" data-original="#000000" opacity="1"></path><path d="M0 0h-54.272c-16.569 0-30 13.432-30 30 0 16.568 13.431 30 30 30H0c14.211 0 25.731-11.521 25.731-25.732v-8.536C25.731 11.521 14.211 0 0 0Z" style="stroke-width:30;stroke-linecap:round;stroke-linejoin:round;stroke-miterlimit:10;stroke-dasharray:none;stroke-opacity:1" transform="translate(390.128 15)" fill="none" stroke="#ffffff" stroke-width="30" stroke-linecap="round" stroke-linejoin="round" stroke-miterlimit="10" stroke-dasharray="none" stroke-opacity="" data-original="#000000" opacity="1"></path></g></g></svg>