<svg xmlns="http://www.w3.org/2000/svg" version="1.1" xmlns:xlink="http://www.w3.org/1999/xlink" xmlns:svgjs="http://svgjs.com/svgjs" width="512" height="512" x="0" y="0" viewBox="0 0 24 24" style="enable-background:new 0 0 512 512" xml:space="preserve" class=""><g><g fill="#000"><path d="M12.25 17a.75.75 0 0 1 .75-.75h6a.75.75 0 0 1 0 1.5h-6a.75.75 0 0 1-.75-.75zM6.45 10.4a.75.75 0 1 0-.9 1.2l3.2 2.4-3.2 2.4a.75.75 0 0 0 .9 1.2l4-3a.75.75 0 0 0 0-1.2z" fill="#ffffff" data-original="#000000" class="" opacity="1"></path><path fill-rule="evenodd" d="M1.25 6A4.75 4.75 0 0 1 6 1.25h12A4.75 4.75 0 0 1 22.75 6v12A4.75 4.75 0 0 1 18 22.75H6A4.75 4.75 0 0 1 1.25 18zM6 2.75A3.25 3.25 0 0 0 2.75 6v12A3.25 3.25 0 0 0 6 21.25h12A3.25 3.25 0 0 0 21.25 18V6A3.25 3.25 0 0 0 18 2.75z" clip-rule="evenodd" fill="#ffffff" data-original="#000000" class="" opacity="1"></path></g></g></svg>