<svg xmlns="http://www.w3.org/2000/svg" version="1.1" xmlns:xlink="http://www.w3.org/1999/xlink" xmlns:svgjs="http://svgjs.com/svgjs" width="512" height="512" x="0" y="0" viewBox="0 0 512.001 512" style="enable-background:new 0 0 512 512" xml:space="preserve" class=""><g><path d="M422.023 161.715c0 8.281-6.714 14.996-14.996 14.996s-14.996-6.715-14.996-14.996 6.715-14.996 14.996-14.996 14.996 6.715 14.996 14.996zm0 0" fill="#ffffff" data-original="#000000" opacity="1" class=""></path><path d="M370.473 26.75h-19.805c-.14-.098-.281-.195-.426-.293-18.847-12.992-53.93-37.168-104.07-21.164-1.3.418-19.899 6.523-38.531 21.457h-12.559C87.586 26.75.132 114.203.132 221.7c0 .577-.023 1.3-.042 2.167C-.273 238.98-1.38 284.97 38.69 344.051c14.016 20.66 21.422 46.469 21.426 74.633v42.953c0 8.281 6.711 14.996 14.996 14.996h60.985c8.28 0 14.996-6.715 14.996-14.996v-74.98h59.984v74.98c0 8.281 6.715 14.996 14.996 14.996h60.985c8.28 0 14.996-6.715 14.996-14.996 0-58.164 11.91-110.258 36.41-159.266l17.039-34.07 28.93 4.824c21.78 3.629 37.59 22.293 37.59 44.375v24.168c0 8.27-6.727 14.996-14.997 14.996-4.004 0-7.77-1.562-10.601-4.394-5.852-5.852-15.356-5.856-21.207 0l-42.387 42.386c-5.855 5.856-5.855 15.352 0 21.207 24.938 24.946 60.922 35.914 96.703 27.719C476.184 432.902 512 382.277 512 335.176V168.273C512 90.238 448.512 26.75 370.473 26.75zm111.535 308.426c0 34.957-27.649 71.953-59.168 79.172-20.371 4.664-40.528.972-57.164-10.121l21.945-21.946c5.98 2.867 12.578 4.375 19.406 4.375 24.805 0 44.989-20.18 44.989-44.988v-24.164c0-36.805-26.352-67.91-62.657-73.961l-39.851-6.64a14.986 14.986 0 0 0-15.88 8.085l-21.987 43.977c-24.5 49-37.418 100.722-39.332 157.68h-31.243V371.66c0-8.281-6.71-14.996-14.996-14.996h-30.03c9.437-12.539 15.038-28.121 15.038-44.988 0-8.281-6.715-14.996-14.996-14.996s-14.996 6.715-14.996 14.996c0 24.808-20.184 44.988-44.988 44.988-8.286 0-14.996 6.715-14.996 14.996v74.985H90.109v-27.961c-.004-34.188-9.199-65.817-26.593-91.465-34.68-51.133-33.746-89.895-33.442-102.63.028-1.152.051-2.116.051-2.886 0-86.27 66.562-157.281 151.027-164.375a93.05 93.05 0 0 0-6.746 14.777c-12.562 35.383-3.543 76.82 26.797 123.165l42.317 64.636c4.167 6.371 12.445 8.602 19.253 5.2 31.278-15.641 52.149-37.278 62.036-64.313 8.289-22.676 7.289-44.04 6.558-59.64-.172-3.641-.32-6.786-.32-9.43 0-8.282-6.715-14.996-14.996-14.996s-14.996 6.714-14.996 14.996c0 3.347.172 6.984.351 10.836 1.246 26.562 2.914 62.191-40.437 89.246l-34.672-52.965c-24.918-38.063-32.875-70.578-23.645-96.653 12.403-35.039 52.243-48.19 52.641-48.316 36.125-11.531 61.281 5.809 77.93 17.285 4.613 3.176 7.465 5.59 12.82 5.59h24.434c61.5 0 111.53 50.031 111.53 111.531zm0 0" fill="#ffffff" data-original="#000000" opacity="1" class=""></path></g></svg>