<svg xmlns="http://www.w3.org/2000/svg" version="1.1" xmlns:xlink="http://www.w3.org/1999/xlink" xmlns:svgjs="http://svgjs.com/svgjs" width="512" height="512" x="0" y="0" viewBox="0 0 32 32" style="enable-background:new 0 0 512 512" xml:space="preserve" class=""><g><path d="M22 31h-6a1 1 0 0 1-1-1v-3a2 2 0 0 0-4 0v3a1 1 0 0 1-1 1H4a3 3 0 0 1-3-3v-6a1 1 0 0 1 1-1h3a2 2 0 0 0 0-4H2a1 1 0 0 1-1-1v-6a3 3 0 0 1 3-3h5V5a4 4 0 0 1 8 0v2h5a3 3 0 0 1 3 3v5h2a4 4 0 0 1 0 8h-2v5a3 3 0 0 1-3 3zm-5-2h5a1 1 0 0 0 1-1v-6a1 1 0 0 1 1-1h3a2 2 0 0 0 0-4h-3a1 1 0 0 1-1-1v-6a1 1 0 0 0-1-1h-6a1 1 0 0 1-1-1V5a2 2 0 0 0-4 0v3a1 1 0 0 1-1 1H4a1 1 0 0 0-1 1v5h2a4 4 0 0 1 0 8H3v5a1 1 0 0 0 1 1h5v-2a4 4 0 0 1 8 0z" fill="#ffffff" data-original="#000000" opacity="1" class=""></path></g></svg>