<svg xmlns="http://www.w3.org/2000/svg" version="1.1" xmlns:xlink="http://www.w3.org/1999/xlink" xmlns:svgjs="http://svgjs.com/svgjs" width="512" height="512" x="0" y="0" viewBox="0 0 34 34" style="enable-background:new 0 0 512 512" xml:space="preserve" class=""><rect width="34" height="34" fill="#eeeeee" shape="square"></rect><g transform="matrix(0.7,0,0,0.7,5.100000000000001,5.100000000000001)"><path d="M7.5 26H30c.83 0 1.5-.67 1.5-1.5v-22c0-.83-.67-1.5-1.5-1.5H7.5c-2.76 0-5 2.24-5 5v22c0 2.76 2.24 5 5 5H30c.83 0 1.5-.67 1.5-1.5S30.83 30 30 30H7.5c-1.1 0-2-.9-2-2s.9-2 2-2zm10.56-4.94c-.28.28-.67.44-1.06.44s-.78-.16-1.06-.44a1.499 1.499 0 0 1 0-2.12c.56-.56 1.56-.56 2.12 0a1.499 1.499 0 0 1 0 2.12zM14.11 6.55a4.545 4.545 0 0 1 3.69-.98c1.82.32 3.31 1.81 3.63 3.63.33 1.91-.57 3.81-2.26 4.74-.41.23-.67.74-.67 1.32v.24c0 .83-.67 1.5-1.5 1.5s-1.5-.67-1.5-1.5v-.24c0-1.68.85-3.19 2.22-3.94.44-.24.89-.81.75-1.6-.1-.59-.6-1.09-1.18-1.19-.47-.09-.91.03-1.25.32s-.54.71-.54 1.15c0 .83-.67 1.5-1.5 1.5s-1.5-.67-1.5-1.5c0-1.33.59-2.59 1.61-3.45z" fill="#aaaaaa" data-original="#000000" opacity="1" class=""></path></g></svg>