<?xml version="1.0" standalone="no"?>
<!DOCTYPE svg PUBLIC "-//W3C//DTD SVG 20010904//EN"
 "http://www.w3.org/TR/2001/REC-SVG-20010904/DTD/svg10.dtd">
<svg version="1.0" xmlns="http://www.w3.org/2000/svg"
 width="512.000000pt" height="512.000000pt" viewBox="0 0 512.000000 512.000000"
 preserveAspectRatio="xMidYMid meet">
<metadata>
Created by potrace 1.14, written by Peter Selinger 2001-2017
</metadata>
<g transform="translate(0.000000,512.000000) scale(0.100000,-0.100000)"
fill="#000000" stroke="none">
<path d="M2318 5101 c-97 -20 -118 -58 -154 -277 -15 -96 -31 -179 -34 -184
-3 -5 -50 -21 -104 -35 -184 -48 -389 -134 -546 -229 -41 -25 -78 -46 -81 -46
-3 0 -75 50 -160 110 -162 116 -195 130 -258 112 -79 -24 -389 -334 -413 -414
-18 -61 -4 -95 112 -257 60 -85 110 -157 110 -160 0 -3 -21 -40 -46 -81 -95
-157 -181 -362 -229 -546 -14 -54 -30 -101 -35 -104 -5 -3 -89 -19 -185 -34
-258 -42 -273 -56 -284 -266 -3 -72 -3 -188 0 -260 11 -210 26 -224 284 -266
96 -15 180 -31 185 -34 5 -3 21 -50 35 -104 48 -184 134 -389 229 -546 25 -41
46 -78 46 -81 0 -3 -50 -75 -110 -160 -116 -162 -130 -196 -112 -257 24 -79
335 -389 414 -413 62 -20 96 -5 258 111 84 61 155 110 159 110 3 0 40 -21 81
-46 157 -95 362 -181 546 -229 54 -14 101 -30 104 -35 3 -5 19 -89 34 -185 32
-192 44 -223 106 -259 33 -20 51 -21 290 -21 355 0 350 -4 396 281 16 98 35
183 42 191 7 7 22 13 32 13 35 0 247 69 364 119 64 27 164 77 221 110 57 34
106 61 108 61 2 0 73 -50 158 -110 162 -116 196 -130 257 -112 79 24 390 335
414 413 19 64 4 98 -112 260 -61 84 -110 155 -110 158 0 3 21 40 46 81 95 157
181 362 229 546 14 54 30 101 35 104 5 3 89 19 185 34 258 42 273 56 284 266
3 72 3 188 0 260 -11 210 -26 224 -284 266 -96 15 -180 31 -185 34 -5 3 -21
50 -35 104 -48 184 -134 389 -229 546 -25 41 -46 78 -46 81 0 3 49 74 110 158
116 162 131 196 112 259 -24 80 -334 390 -413 414 -63 18 -96 4 -258 -112 -85
-60 -156 -110 -158 -110 -2 0 -51 27 -108 61 -57 33 -157 83 -221 110 -117 50
-329 119 -364 119 -10 0 -25 6 -32 13 -7 8 -26 93 -42 191 -32 193 -44 224
-106 260 -32 19 -53 21 -265 23 -126 1 -246 -2 -267 -6z m-432 -2129 c83 -42
144 -144 144 -237 0 -62 37 -124 90 -152 41 -22 54 -23 242 -23 l198 0 0 -198
c0 -188 -1 -201 -23 -242 -30 -57 -90 -90 -161 -90 -180 0 -310 -204 -235
-370 43 -96 117 -146 234 -159 91 -11 136 -37 164 -95 19 -39 21 -60 21 -286
l0 -243 -102 7 c-851 55 -1519 723 -1574 1574 l-7 102 244 0 c234 0 247 1 289
23 54 27 90 83 90 143 0 118 70 220 177 260 53 20 157 13 209 -14z"/>
</g>
</svg>
